<svg xmlns="http://www.w3.org/2000/svg" fill="none" viewBox="0 0 128 128">
    <path d="M64 12c-28 0-52 24-52 52 0 28 24 52 52 52s52-24 52-52c0-28-24-52-52-52zm0 8c24 0 44 20 44 44s-20 44-44 44-44-20-44-44 20-44 44-44zm-8 16c-4 0-8 4-8 8s4 8 8 8 8-4 8-8-4-8-8-8zm16 0c-4 0-8 4-8 8s4 8 8 8 8-4 8-8-4-8-8-8zm-24 24c-2 0-4 2-4 4s2 4 4 4 4-2 4-4-2-4-4-4zm32 0c-2 0-4 2-4 4s2 4 4 4 4-2 4-4-2-4-4-4zm-16 16c-6 0-12 4-12 8 0 2 2 4 4 4s4-2 4-4c0-2 2-4 4-4s4 2 4 4c0 2 2 4 4 4s4-2 4-4c0-4-6-8-12-8z" />
    <style>
        path { fill: #16a34a; }
        @media (prefers-color-scheme: dark) {
            path { fill: #4ade80; }
        }
    </style>
</svg>
