<svg xmlns="http://www.w3.org/2000/svg" fill="none" viewBox="0 0 128 128">
    <path d="M64 8 L64 120 M56 120 L72 120 M60 100 L68 100 M58 80 L70 80 M56 60 L72 60 M54 40 L74 40 M52 20 L76 20 M50 12 L78 12 M64 8 L64 4 M58 16 L70 16 M62 24 L66 24 M60 32 L68 32 M58 40 L70 40 M56 48 L72 48 M54 56 L74 56 M52 64 L76 64 M50 72 L78 72 M48 80 L80 80 M46 88 L82 88 M44 96 L84 96 M42 104 L86 104 M40 112 L88 112 M38 120 L90 120" stroke="#ec4899" stroke-width="2" fill="none"/>
    <circle cx="64" cy="8" r="4" fill="#ec4899"/>
    <style>
        path, circle { stroke: #ec4899; fill: #ec4899; }
        @media (prefers-color-scheme: dark) {
            path, circle { stroke: #f472b6; fill: #f472b6; }
        }
    </style>
</svg>
